<svg xmlns="http://www.w3.org/2000/svg"  width="250" height="100" viewBox="0 0 250 100">
    <style type="text/css">
        .st0{fill:rgb(35,35,35);}
        svg{background:white;}
    </style>
    <g transform="scale(0.5)">
    <path class="st0" d="M105.7 195h41.5l41.9-113.2h.4v113.2h56.7v-187.6h-78.7l-39.9 113.6-41.9-113.6h-79.5v187.6h56.4v-113.2h.4zm153.9-115.9h58v116h-58zm179.5 45.4c0 20-16.1 30.6-32.1 30.6-11.4 0-20.4-4.7-20.4-16.5 0-10.2 6.7-17.2 20.4-19.6l32.1-5.5v11zm59.5 70.5v-120.6c0-52.1-36.8-70.9-81.9-70.9-51.7 0-82.7 27.4-85.4 63.1h59.2c1.2-9.8 10.2-18.4 25.5-18.4s23.1 7.8 23.1 20.8v5l-45.1 5.8c-40.4 5.1-67.4 21.5-67.4 63.1 0 36.4 23.9 56 61.1 56 26.2 0 42.3-10.6 52.5-27.8l.8 23.9h57.6zm-239-187.6h58v59.2h-58z"/>
    </g>
</svg>
